<mxfile host="65bd71144e" modified="2021-02-19T10:40:32.692Z" agent="5.0 (Windows NT 10.0; Win64; x64) AppleWebKit/537.36 (KHTML, like Gecko) Code/1.53.2 Chrome/87.0.4280.141 Electron/11.2.1 Safari/537.36" version="14.2.4" etag="6GLlKUvp544HSwc25cmz" type="embed">
    <diagram id="hbAv1XEss_-wt-Ay-IuF" name="Page-1">
        <mxGraphModel dx="1060" dy="498" grid="1" gridSize="10" guides="1" tooltips="1" connect="1" arrows="1" fold="1" page="1" pageScale="1" pageWidth="827" pageHeight="1169" math="0" shadow="0">
            <root>
                <mxCell id="0"/>
                <mxCell id="1" parent="0"/>
                <mxCell id="2" value="APP" style="rounded=1;whiteSpace=wrap;html=1;fillColor=#999900;strokeColor=#1C1F00;" vertex="1" parent="1">
                    <mxGeometry x="320" y="20" width="120" height="60" as="geometry"/>
                </mxCell>
                <mxCell id="3" value="&lt;b&gt;&lt;u style=&quot;background-color: rgb(102 , 0 , 204)&quot;&gt;Fetch API&lt;br&gt;&lt;/u&gt;&lt;/b&gt;&lt;br&gt;(custom hook, &lt;br&gt;boiler plate - Poke, Quiz)" style="rounded=1;whiteSpace=wrap;html=1;strokeColor=#1C1F00;fillColor=#4B3D5C;" vertex="1" parent="1">
                    <mxGeometry x="400" y="120" width="180" height="110" as="geometry"/>
                </mxCell>
                <mxCell id="4" value="&lt;span style=&quot;background-color: rgb(102 , 0 , 204)&quot;&gt;Questions&lt;/span&gt;" style="rounded=1;whiteSpace=wrap;html=1;strokeColor=#1C1F00;fillColor=#4B3D5C;" vertex="1" parent="1">
                    <mxGeometry x="10" y="120" width="120" height="70" as="geometry"/>
                </mxCell>
                <mxCell id="6" value="&lt;span style=&quot;background-color: rgb(102 , 0 , 204)&quot;&gt;Options / Mult Choice&lt;/span&gt;" style="rounded=1;whiteSpace=wrap;html=1;strokeColor=#1C1F00;fillColor=#4B3D5C;" vertex="1" parent="1">
                    <mxGeometry x="10" y="190" width="120" height="60" as="geometry"/>
                </mxCell>
                <mxCell id="7" value="&lt;span style=&quot;background-color: rgb(102 , 0 , 204)&quot;&gt;Level&lt;/span&gt;&lt;br&gt;&lt;br&gt;Keep track of score?&lt;br&gt;&lt;br&gt;Stars??" style="rounded=1;whiteSpace=wrap;html=1;strokeColor=#1C1F00;fillColor=#4B3D5C;" vertex="1" parent="1">
                    <mxGeometry x="620" y="120" width="130" height="110" as="geometry"/>
                </mxCell>
                <mxCell id="8" style="edgeStyle=orthogonalEdgeStyle;rounded=0;orthogonalLoop=1;jettySize=auto;html=1;exitX=0.5;exitY=1;exitDx=0;exitDy=0;" edge="1" parent="1" source="6" target="6">
                    <mxGeometry relative="1" as="geometry"/>
                </mxCell>
                <mxCell id="9" value="&lt;b&gt;&lt;u style=&quot;background-color: rgb(102 , 0 , 204)&quot;&gt;Avatar&lt;/u&gt;&lt;/b&gt;&lt;br&gt;&lt;span&gt;(Choose one you want)&lt;/span&gt;&lt;br&gt;&lt;span&gt;Front image/back image)&lt;/span&gt;&lt;br&gt;&lt;span&gt;STATE&lt;/span&gt;" style="rounded=1;whiteSpace=wrap;html=1;strokeColor=#1C1F00;fillColor=#4B3D5C;" vertex="1" parent="1">
                    <mxGeometry x="170" y="120" width="190" height="110" as="geometry"/>
                </mxCell>
            </root>
        </mxGraphModel>
    </diagram>
</mxfile>